<?xml version="1.0" encoding="UTF-8"?>
<svg width="600px" height="600px" viewBox="0 0 600 600" version="1.1" xmlns="http://www.w3.org/2000/svg" xmlns:xlink="http://www.w3.org/1999/xlink">
    <!-- Generator: Sketch 53.2 (72643) - https://sketchapp.com -->
    <title>Artboard</title>
    <desc>Created with Sketch.</desc>
    <defs>
        <linearGradient x1="29.4038348%" y1="-5.18494696%" x2="50%" y2="100%" id="linearGradient-1">
            <stop stop-color="#FFFFFF" stop-opacity="0.5" offset="0%"></stop>
            <stop stop-color="#000000" stop-opacity="0.5" offset="100%"></stop>
        </linearGradient>
        <path d="M143,486.335504 C128.960565,483.84622 108.252903,493.853338 82.4994309,465.895847 C56.7459585,437.938357 21.6764285,430.787308 10.0749606,402.895847 C-1.52650735,375.004387 0.0749605701,341.787428 0.0749605701,330.895847 C0.0749605701,323.634793 3.4082939,318.30146 10.0749606,314.895847 C10.1037526,330.25475 12.7704192,347.445792 18.0749606,366.468975 C26.0317726,395.003749 29.5731524,400.443149 52,417.895847 C74.4268476,435.348545 74.0738223,435.348545 99.5743914,445.895847 C125.074961,456.443149 132.0946,456.443149 137.074961,465.895847 C142.055322,475.348545 157.039435,488.824788 143,486.335504 Z" id="path-2"></path>
        <linearGradient x1="50%" y1="0%" x2="35.1867087%" y2="119.684132%" id="linearGradient-3">
            <stop stop-color="#FFFFFF" stop-opacity="0.5" offset="0%"></stop>
            <stop stop-color="#000000" stop-opacity="0.5" offset="100%"></stop>
        </linearGradient>
        <path d="M135,477.663121 C135,469.982311 141.997986,498.617968 170.51874,464.895847 C174.911872,459.701533 190.10991,459.542495 195,450.663121 C231.637152,384.137767 244.598576,296.191378 249,270.663121 C251.934282,253.644283 247.267616,236.310949 235,218.663121 C246.865005,214.75823 257.198338,225.75823 266,251.663121 C279.202493,290.520458 287.810574,291.604919 279,348.163121 C270.189426,404.721322 251.169951,424.194451 235,450.663121 C218.830049,477.131791 223.813912,477.883365 195,485.663121 C166.186088,493.442877 135,486.527027 135,477.663121 Z" id="path-4"></path>
        <linearGradient x1="43.7808125%" y1="54.8492094%" x2="50%" y2="100%" id="linearGradient-5">
            <stop stop-color="#FFFFFF" stop-opacity="0.289310055" offset="0%"></stop>
            <stop stop-color="#000000" stop-opacity="0.5" offset="100%"></stop>
        </linearGradient>
        <path d="M120.046316,488.895847 C100.401632,489.603872 64.2167102,441.53554 62.0463155,424.895847 C59.0463155,401.895847 26.0740352,323.533084 19.0463155,279.895847 C12.0185958,236.258611 35.9663619,234.839907 45,171.895847 C54.0336381,108.951788 35.9663619,44.8958472 45,44.8958472 C54.0336381,44.8958472 70.2852501,111.417912 73.0463155,157.895847 C75.807381,204.373782 57.3535236,215.103275 62.0463155,265.895847 C66.7391075,316.688419 72.7832718,331.018607 82.4994309,367.895847 C92.21559,404.773087 106.046316,412.625277 106.046316,432.895847 C106.046316,453.166418 167.97759,463.438801 148.046316,475.895847 C128.115041,488.352894 191.084975,486.335504 120.046316,488.895847 Z" id="path-6"></path>
        <linearGradient x1="50%" y1="0%" x2="44.6207937%" y2="111.029607%" id="linearGradient-7">
            <stop stop-color="#FFFFFF" stop-opacity="0.5" offset="0%"></stop>
            <stop stop-color="#000000" stop-opacity="0.5" offset="100%"></stop>
        </linearGradient>
        <path d="M135,482.895847 C130.459259,472.67918 191.62455,412.601676 201,385.895847 C210.37545,359.190019 207.331678,336.843214 201,294.895847 C194.668322,252.948481 182.784953,247.055532 177,226.895847 C171.215047,206.736162 168,199.182993 168,179.895847 C168,167.03775 171,154.704417 177,142.895847 C179.333676,142.533436 184.000343,154.86677 191,179.895847 C201.499486,217.439464 195.382296,216.480516 210,260.895847 C224.617704,305.311179 240.39976,297.710328 243,337.895847 C245.60024,378.081367 259.011978,379.861247 221,430.895847 C182.988022,481.930448 139.540741,493.112514 135,482.895847 Z" id="path-8"></path>
        <linearGradient x1="47.9263072%" y1="39.1242301%" x2="52.0338181%" y2="107.311354%" id="linearGradient-9">
            <stop stop-color="#FFFFFF" stop-opacity="0.5" offset="0%"></stop>
            <stop stop-color="#000000" stop-opacity="0.5" offset="99.9665956%"></stop>
        </linearGradient>
        <path d="M144,461.895847 C125.774245,417.574125 122.168666,417.119272 108,366.895847 C93.8313339,316.672422 82.4994309,292.448693 82.4994309,243.895847 C82.4994309,195.343002 94.2468818,225.576866 108,158.895847 C116.126561,119.494791 114.034986,59.9694751 116.277866,25.2862498 C117.830761,1.27275463 132,-5.10415281 132,3.89584719 C130,57.8958472 151.998862,52.9665813 151.998862,107.895847 C151.998862,162.825113 129.788121,151.327586 132,219.895847 C134.211879,288.464109 166.130688,304.755587 170,353.895847 C173.869312,403.036108 154.918683,461.772087 152,473.895847 C149.081317,486.019607 162.225755,506.217569 144,461.895847 Z" id="path-10"></path>
    </defs>
    <g id="Artboard" stroke="none" stroke-width="1" fill="none" fill-rule="evenodd">
        <g id="Group" transform="translate(148.000000, 38.104153)">
            <g id="Path-5">
                <use fill="#0D9488" xlink:href="#path-2"></use>
                <use fill-opacity="0.4" fill="url(#linearGradient-1)" xlink:href="#path-2"></use>
            </g>
            <g id="Path-4">
                <use fill="#0D9488" xlink:href="#path-4"></use>
                <use fill="url(#linearGradient-3)" xlink:href="#path-4"></use>
            </g>
            <g id="Path">
                <use fill="#0D9488" xlink:href="#path-6"></use>
                <use fill="url(#linearGradient-5)" xlink:href="#path-6"></use>
            </g>
            <g id="Path-3">
                <use fill="#0D9488" xlink:href="#path-8"></use>
                <use fill="url(#linearGradient-7)" xlink:href="#path-8"></use>
            </g>
            <g id="Path-2">
                <use fill="#0D9488" xlink:href="#path-10"></use>
                <use fill-opacity="0.88" fill="url(#linearGradient-9)" xlink:href="#path-10"></use>
            </g>
        </g>
    </g>
</svg>